<?xml version="1.0" standalone="no"?>
<!DOCTYPE svg PUBLIC "-//W3C//DTD SVG 20010904//EN"
 "http://www.w3.org/TR/2001/REC-SVG-20010904/DTD/svg10.dtd">
<svg version="1.0" xmlns="http://www.w3.org/2000/svg"
 width="920.000000pt" height="920.000000pt" viewBox="0 0 920.000000 920.000000"
 preserveAspectRatio="xMidYMid meet">
<metadata>
Created by potrace 1.14, written by Peter Selinger 2001-2017
</metadata>
<g transform="translate(0.000000,920.000000) scale(0.100000,-0.100000)"
fill="#000000" stroke="none">
<path d="M4495 8531 c-85 -39 -135 -120 -135 -218 0 -132 103 -233 238 -233
148 0 262 152 223 297 -16 58 -67 122 -121 149 -57 30 -147 32 -205 5z"/>
<path d="M6547 8309 c-132 -70 -122 -267 18 -330 124 -57 255 31 255 171 0 28
-6 63 -14 78 -19 36 -65 78 -99 91 -44 17 -118 12 -160 -10z"/>
<path d="M2457 8299 c-72 -38 -114 -143 -88 -222 16 -47 79 -103 132 -117 66
-18 117 -4 165 44 90 90 79 223 -25 293 -44 30 -129 31 -184 2z"/>
<path d="M2992 7482 c-178 -64 -252 -268 -153 -425 76 -118 214 -166 343 -117
74 28 122 70 157 142 115 228 -108 485 -347 400z"/>
<path d="M6017 7486 c-121 -44 -197 -150 -197 -277 0 -151 129 -280 282 -281
252 -1 385 306 208 483 -78 78 -198 108 -293 75z"/>
<path d="M4517 7260 c-210 -53 -321 -279 -230 -471 17 -35 47 -81 68 -102 166
-163 451 -110 549 102 32 71 30 207 -5 281 -14 30 -43 72 -64 94 -76 77 -220
120 -318 96z"/>
<path d="M7715 6676 c-60 -28 -87 -56 -114 -116 -52 -113 0 -254 113 -306 239
-111 451 191 265 378 -72 72 -170 89 -264 44z"/>
<path d="M1318 6681 c-48 -16 -106 -53 -128 -83 -73 -98 -64 -233 20 -315 51
-50 96 -68 171 -68 56 0 73 5 115 30 30 19 60 49 79 79 27 45 30 58 30 132 0
75 -3 86 -30 125 -57 82 -174 127 -257 100z"/>
<path d="M3765 6331 c-252 -72 -424 -300 -425 -561 0 -258 181 -488 437 -555
115 -30 266 -16 378 35 210 95 338 296 339 530 0 252 -161 467 -406 545 -97
31 -230 33 -323 6z"/>
<path d="M5115 6332 c-94 -28 -164 -71 -242 -148 -198 -196 -228 -495 -72
-728 232 -348 772 -327 973 37 58 106 71 158 71 287 0 94 -4 127 -23 182 -57
166 -190 300 -355 358 -87 31 -267 37 -352 12z"/>
<path d="M2500 6085 c-93 -26 -165 -85 -216 -178 -27 -48 -29 -61 -29 -152 0
-85 4 -107 24 -147 31 -63 88 -121 153 -155 48 -25 63 -28 153 -28 89 0 106 3
150 27 62 32 129 103 158 166 17 37 22 66 22 137 0 78 -4 97 -28 146 -70 144
-240 224 -387 184z"/>
<path d="M6520 6091 c-84 -26 -174 -101 -210 -176 -81 -167 -14 -366 152 -451
75 -39 190 -45 270 -14 71 26 146 96 184 170 25 48 29 66 29 145 0 85 -2 94
-36 155 -43 79 -117 143 -191 165 -54 16 -155 19 -198 6z"/>
<path d="M5820 5164 c-208 -55 -380 -237 -425 -449 -19 -88 -19 -134 -1 -228
24 -126 97 -250 192 -329 67 -55 101 -74 189 -104 99 -33 235 -37 330 -10 184
54 328 185 395 361 31 82 39 244 16 335 -53 209 -211 373 -413 425 -71 19
-210 18 -283 -1z"/>
<path d="M3107 5154 c-205 -49 -370 -210 -422 -411 -8 -31 -15 -98 -15 -148 0
-169 48 -283 170 -406 113 -114 243 -169 397 -169 100 0 164 15 261 62 350
166 428 638 152 918 -137 139 -353 200 -543 154z"/>
<path d="M7516 4876 c-169 -63 -237 -283 -132 -430 40 -57 74 -84 137 -107
135 -52 288 11 356 145 34 67 36 168 6 237 -24 53 -85 119 -135 145 -45 24
-180 29 -232 10z"/>
<path d="M1489 4865 c-64 -21 -141 -92 -169 -157 -31 -69 -31 -164 -2 -230 22
-51 84 -117 134 -145 47 -25 209 -26 255 0 55 30 103 78 131 131 35 67 38 178
5 246 -25 55 -83 114 -137 142 -53 27 -155 33 -217 13z"/>
<path d="M8636 4775 c-114 -41 -159 -174 -92 -275 28 -43 96 -80 146 -80 79 0
170 76 184 155 16 82 -47 181 -129 204 -50 14 -61 13 -109 -4z"/>
<path d="M435 4761 c-105 -47 -143 -172 -81 -264 66 -97 188 -111 276 -30 93
84 71 237 -42 292 -54 26 -100 26 -153 2z"/>
<path d="M3840 3989 c-231 -34 -417 -204 -471 -429 -19 -77 -16 -222 5 -295
73 -251 291 -415 551 -415 156 0 283 52 405 167 87 81 129 154 156 269 21 93
15 237 -14 318 -96 263 -362 426 -632 385z"/>
<path d="M5230 3994 c-161 -26 -258 -72 -356 -169 -303 -299 -185 -802 224
-948 46 -17 82 -21 187 -21 118 0 136 2 199 27 223 88 368 298 369 537 2 300
-233 550 -538 573 -33 3 -71 3 -85 1z"/>
<path d="M6527 3765 c-93 -26 -171 -93 -216 -185 -22 -47 -26 -68 -26 -145 0
-75 4 -98 25 -140 33 -67 99 -131 168 -163 82 -39 192 -38 277 1 122 57 195
171 195 307 0 162 -101 289 -259 326 -68 17 -101 16 -164 -1z"/>
<path d="M2478 3755 c-96 -35 -170 -111 -209 -214 -56 -149 21 -335 169 -408
50 -25 68 -28 152 -28 84 0 101 3 145 27 173 92 237 286 150 457 -34 68 -86
118 -159 152 -51 24 -73 29 -136 28 -41 0 -92 -7 -112 -14z"/>
<path d="M7747 2976 c-59 -22 -103 -62 -132 -121 -24 -47 -27 -64 -23 -124 4
-85 37 -139 113 -186 88 -54 214 -36 286 42 92 98 91 242 -2 335 -66 66 -153
85 -242 54z"/>
<path d="M1285 2946 c-60 -28 -87 -56 -114 -116 -41 -90 -22 -189 50 -262 174
-174 468 12 385 245 -47 132 -194 193 -321 133z"/>
<path d="M4473 2592 c-72 -26 -128 -65 -164 -115 -51 -70 -62 -105 -63 -197 0
-72 4 -94 26 -142 57 -122 176 -202 303 -202 106 -1 167 25 241 98 75 75 98
134 98 247 0 91 -30 162 -95 229 -85 87 -233 122 -346 82z"/>
<path d="M6015 2260 c-73 -28 -120 -72 -156 -145 -29 -59 -31 -71 -27 -137 11
-164 123 -272 283 -273 164 0 287 121 289 285 1 201 -201 342 -389 270z"/>
<path d="M2996 2254 c-68 -21 -147 -101 -171 -173 -38 -114 -6 -232 84 -314
57 -51 104 -69 182 -69 170 0 300 139 287 306 -7 79 -34 132 -98 189 -82 73
-176 94 -284 61z"/>
<path d="M6592 1237 c-43 -14 -98 -76 -112 -128 -31 -114 42 -219 158 -227
104 -7 184 57 198 160 9 62 -9 109 -56 152 -57 51 -119 65 -188 43z"/>
<path d="M2490 1224 c-71 -31 -110 -92 -110 -174 0 -106 76 -180 186 -180 158
0 243 200 132 307 -62 60 -139 77 -208 47z"/>
<path d="M4500 1104 c-130 -56 -185 -194 -126 -319 40 -88 114 -135 211 -135
132 0 235 102 235 232 0 101 -69 200 -159 227 -52 15 -119 13 -161 -5z"/>
</g>
</svg>
